<svg xmlns="http://www.w3.org/2000/svg" width="49" height="63" viewBox="0 0 49 63"><defs><clipPath id="2r6ha"><path fill="#fff" d="M20.592-.004c5.88 0 10.647 4.701 10.647 10.5 0 5.8-4.767 10.502-10.647 10.502S9.946 16.297 9.946 10.497 14.712-.004 20.592-.004z"/></clipPath><clipPath id="2r6hb"><path fill="#fff" d="M21.47 49.695l-1.045-1.044L34.37 34.824l1.045 1.045z"/></clipPath><clipPath id="2r6hc"><path fill="#fff" d="M21.631 48.115l-1.045 1.744L3.153 32.576l1.045-1.744z"/></clipPath><clipPath id="2r6hd"><path fill="#fff" d="M48.996 22.947s-.984 14.419-5.24 18.638c-4.254 4.218-10.74 4.629-14.484.916-3.744-3.712-3.33-10.141.925-14.36 4.255-4.218 18.799-5.194 18.799-5.194z"/></clipPath><clipPath id="2r6he"><path fill="#fff" d="M-.002 29.398s.72 10.51 3.837 13.585c3.117 3.075 7.867 3.374 10.61.668 2.743-2.706 2.44-7.392-.677-10.467s-13.77-3.786-13.77-3.786z"/></clipPath></defs><g><g><path fill="#fff" d="M19.914 26.325h2.066V63h-2.066z"/></g><g><path fill="none" stroke="#fff" stroke-miterlimit="20" stroke-width="6" d="M20.592-.004c5.88 0 10.647 4.701 10.647 10.5 0 5.8-4.767 10.502-10.647 10.502S9.946 16.297 9.946 10.497 14.712-.004 20.592-.004z" clip-path="url(&quot;#2r6ha&quot;)"/></g><g><path fill="none" stroke="#fff" stroke-miterlimit="20" stroke-width="6" d="M21.47 49.695v0l-1.045-1.044v0L34.37 34.824v0l1.045 1.045v0z" clip-path="url(&quot;#2r6hb&quot;)"/></g><g><path fill="none" stroke="#fff" stroke-miterlimit="20" stroke-width="6" d="M21.631 48.115v0l-1.045 1.744v0L3.153 32.576v0l1.045-1.744v0z" clip-path="url(&quot;#2r6hc&quot;)"/></g><g><path fill="none" stroke="#fff" stroke-miterlimit="20" stroke-width="6" d="M48.996 22.947v0s-.984 14.419-5.24 18.638c-4.254 4.218-10.74 4.629-14.484.916-3.744-3.712-3.33-10.141.925-14.36 4.255-4.218 18.799-5.194 18.799-5.194z" clip-path="url(&quot;#2r6hd&quot;)"/></g><g><path fill="none" stroke="#fff" stroke-miterlimit="20" stroke-width="6" d="M-.002 29.398v0s.72 10.51 3.837 13.585c3.117 3.075 7.867 3.374 10.61.668 2.743-2.706 2.44-7.392-.677-10.467s-13.77-3.786-13.77-3.786z" clip-path="url(&quot;#2r6he&quot;)"/></g></g></svg>